<?xml version="1.0" encoding="UTF-8" standalone="no"?><!DOCTYPE svg PUBLIC "-//W3C//DTD SVG 1.1//EN" "http://www.w3.org/Graphics/SVG/1.1/DTD/svg11.dtd"><svg width="100%" height="100%" viewBox="0 0 3200 848" version="1.1" xmlns="http://www.w3.org/2000/svg" xmlns:xlink="http://www.w3.org/1999/xlink" xml:space="preserve" style="fill-rule:evenodd;clip-rule:evenodd;stroke-linejoin:round;stroke-miterlimit:1.41421;"><g id="Layer_x0020_1"><path id="path10" d="M1154.64,509.956l0,77.437c-0.753,23.002 -5.345,43.707 -13.817,61.325c-6.889,15.321 -17.657,29.93 -32.978,41.411c-15.322,12.233 -36.027,19.161 -63.621,19.161c-27.634,0 -49.092,-6.928 -64.413,-19.161c-15.321,-11.481 -25.298,-26.09 -32.186,-41.411c-8.433,-17.618 -13.025,-38.323 -13.817,-61.325l0,-332.039c0.792,-22.249 5.344,-42.955 13.817,-60.572c6.888,-15.322 16.865,-30.682 32.186,-42.163c15.321,-11.481 36.819,-19.201 64.413,-19.201c27.633,0 48.299,7.72 63.621,19.201c15.321,11.52 26.089,26.841 32.978,42.163c8.432,17.657 13.064,38.323 13.817,60.572l0,77.438l-77.438,0l0,-77.438c0,-15.321 -3.84,-26.09 -12.273,-35.274c-3.84,-3.841 -10.729,-6.137 -19.161,-6.137c-14.569,0 -21.458,10.729 -25.298,20.706c-2.257,6.136 -3.049,13.064 -3.84,20.745l0,332.039c0.791,16.073 5.384,26.842 13.064,35.235c3.84,3.88 9.185,6.136 16.074,6.136c17.657,0 24.545,-9.185 28.386,-20.705c2.256,-5.345 3.048,-12.273 3.048,-20.706l0,-77.437l77.438,0l0,0Zm241.339,91.254c-2.257,40.659 -14.529,69.005 -41.371,91.255c-13.817,11.521 -32.979,16.865 -58.276,16.865c-49.884,0 -74.39,-27.633 -86.662,-55.228c-6.889,-16.073 -11.482,-34.482 -12.234,-55.188l0,-210.894c2.296,-40.659 14.53,-70.51 41.372,-93.511c13.064,-11.56 32.226,-16.905 57.524,-16.905c49.843,0 75.141,27.634 87.414,54.436c6.888,16.113 11.481,33.77 12.233,53.723l0,215.488l0,-0.04l0,-0.001Zm-72.848,-213.23c0.791,-16.074 -2.297,-27.595 -9.977,-36.819c-3.84,-3.84 -9.977,-6.136 -16.865,-6.136c-14.609,0 -20.745,9.976 -23.794,21.457c-2.296,6.137 -3.048,13.065 -2.296,21.458l0,210.894c-0.752,16.074 3.088,27.634 9.977,36.027c3.84,3.84 9.185,6.137 16.113,6.137c14.529,0 21.457,-9.185 24.506,-20.706c2.296,-6.136 3.088,-13.065 2.296,-21.458l0,-210.894l0.04,0.04l0,0Zm322.302,315.174l-77.438,0l0,-27.633c-13.025,12.273 -24.506,21.457 -39.075,28.386c-7.72,3.84 -15.361,5.344 -22.25,5.344c-21.457,0 -36.026,-12.273 -45.251,-28.386c-9.976,-15.321 -14.529,-36.026 -14.529,-53.644l0,-267.627c0,-17.617 4.592,-38.323 14.529,-54.436c9.225,-15.321 23.794,-27.634 45.251,-27.634c14.53,0 29.93,8.433 41.411,16.905c6.889,5.345 13.025,10.729 19.914,16.866l0,-171.781l77.438,0l0,563.64l0,0Zm-77.438,-327.447c0,-12.272 -11.521,-25.297 -23.002,-25.297c-11.52,0 -20.705,10.728 -20.705,25.297l0,235.401c0,14.609 9.185,25.298 20.705,25.298c11.481,0 23.002,-10.729 23.002,-25.298l0,-235.401Zm333.542,177.124l0,48.34c-2.296,40.658 -14.529,69.005 -42.163,91.254c-13.817,11.521 -32.978,16.865 -58.276,16.865c-49.843,0 -75.141,-27.633 -87.414,-55.227c-6.889,-16.074 -11.481,-34.483 -12.273,-55.189l0,-210.894c2.296,-40.659 15.321,-70.509 42.955,-93.511c13.065,-11.56 32.226,-16.905 57.524,-16.905c49.843,0 75.141,27.634 87.414,54.436c6.889,16.113 11.481,33.77 12.233,53.723l0,121.937l-128.073,0l0,91.254c0.792,16.074 5.345,27.634 12.273,36.027c3.84,3.84 9.185,6.136 16.113,6.136c14.569,0 21.458,-9.185 24.506,-20.705c2.296,-6.137 3.049,-13.065 3.049,-21.458l0,-46.043l72.093,0l0.039,-0.039l0,-0.001Zm-128.071,-105.823l55.98,0l0,-59.068c0,-16.074 -3.048,-27.594 -10.729,-36.819c-3.84,-3.84 -9.976,-6.136 -16.865,-6.136c-14.609,0 -20.745,9.977 -24.546,21.458c-2.296,6.136 -3.048,13.064 -3.84,21.457l0,59.108l0,0Zm334.569,-83.574c-6.889,-2.296 -14.53,-3.048 -21.458,-3.048c-12.233,0 -26.842,1.544 -39.075,13.025c-14.609,12.273 -16.905,25.298 -16.905,38.323l0,291.42l-77.438,0l0,-419.494l77.438,0l0,46.796c0.792,-5.345 6.136,-18.41 18.409,-30.683c12.273,-11.52 30.682,-22.249 59.029,-22.249l0,85.91Zm33.816,339.72l0,-563.639l65.204,0c76.646,0 118.097,15.321 140.306,58.276c21.458,42.955 24.546,113.504 24.546,223.92c0,110.416 -3.088,180.213 -24.546,223.168c-22.209,42.955 -63.66,58.276 -140.306,58.276l-65.204,0l0,-0.001Zm82.863,-82.822c28.346,0 44.459,-3.088 52.892,-30.721c3.84,-13.025 6.928,-32.979 7.68,-59.82c0.792,-26.842 0.792,-62.869 0.792,-108.912c0,-46.003 0,-82.03 -0.792,-108.911c-0.752,-26.051 -3.84,-46.004 -7.68,-59.821c-8.393,-26.841 -24.507,-29.89 -52.892,-29.89l0,398.075Zm393.402,-19.161c-2.257,40.658 -14.53,69.005 -41.372,91.254c-13.817,11.521 -32.978,16.865 -58.276,16.865c-49.883,0 -74.389,-27.633 -86.662,-55.227c-6.888,-16.074 -11.52,-34.483 -12.233,-55.189l0,-210.894c2.296,-40.659 14.569,-70.509 41.371,-93.511c13.065,-11.56 32.226,-16.905 57.524,-16.905c49.844,0 75.142,27.634 87.415,54.436c6.888,16.113 11.481,33.77 12.233,53.723l0,215.488l0,-0.04l0,0Zm-72.849,-213.23c0.792,-16.074 -2.296,-27.594 -9.976,-36.819c-3.841,-3.84 -9.977,-6.136 -16.866,-6.136c-14.608,0 -20.745,9.976 -23.793,21.457c-2.296,6.137 -3.048,13.065 -2.296,21.458l0,210.894c-0.752,16.074 3.088,27.634 9.976,36.027c3.841,3.84 9.185,6.137 16.113,6.137c14.569,0 21.458,-9.185 24.506,-20.706c2.297,-6.136 3.088,-13.065 2.297,-21.458l0,-210.894l0.039,0.04l0,0Zm124.433,-248.466l77.437,0l0,77.438l-77.437,0l0,-77.438Zm77.437,144.186l0,430.183c0,21.457 0,55.227 -10.729,82.861c-10.729,28.346 -34.482,50.596 -78.229,50.596c-12.233,0 -20.706,-0.792 -26.05,-2.296c-3.088,-0.792 -5.345,-1.544 -7.681,-2.297l0,-71.301c2.297,0.752 4.593,0.752 6.889,1.505c5.345,0.791 9.977,1.544 14.609,1.544c13.025,0 19.161,-10.729 22.21,-23.754c0.791,-6.137 1.544,-13.065 1.544,-19.953c0,-6.929 0,-13.065 0,-17.658l0,-429.43l77.437,0l0,0Zm252.865,317.51c-2.257,40.658 -14.569,69.005 -41.371,91.254c-13.817,11.521 -32.979,16.865 -58.277,16.865c-49.883,0 -74.389,-27.633 -86.662,-55.227c-6.888,-16.074 -11.481,-34.483 -12.233,-55.189l0,-210.894c2.296,-40.659 14.53,-70.509 41.372,-93.511c13.064,-11.56 32.226,-16.905 57.524,-16.905c49.843,0 75.141,27.634 87.414,54.436c6.888,16.113 11.481,33.77 12.233,53.723l0,215.488l0,-0.04l0,0Zm-72.848,-213.23c0.791,-16.074 -2.297,-27.594 -9.977,-36.819c-3.84,-3.84 -9.977,-6.136 -16.865,-6.136c-14.569,0 -20.745,9.976 -23.794,21.457c-2.296,6.137 -3.048,13.065 -2.296,21.458l0,210.894c-0.752,16.074 3.088,27.634 9.977,36.027c3.84,3.84 9.184,6.137 16.113,6.137c14.569,0 21.457,-9.185 24.545,-20.706c2.296,-6.136 3.088,-13.065 2.296,-21.458l0,-210.894l0,0.04l0.001,0Z"/><g id="__833871744_"><circle id="circle13" cx="421.473" cy="423.215" r="415.02" style="fill:#fefefe;"/><path id="path15" d="M423.215,0c233.738,0 423.215,189.477 423.215,423.215c0,233.738 -189.477,423.215 -423.215,423.215c-233.738,0 -423.215,-189.477 -423.215,-423.215c0,-233.738 189.477,-423.215 423.215,-423.215Zm-4.276,21.893c-1.979,0 -3.959,0.04 -5.938,0.079c-218.852,3.168 -395.462,181.717 -395.462,401.282c0,219.842 177.006,398.511 396.214,401.282c-108.396,-2.732 -195.494,-91.571 -195.494,-200.602c0,-110.771 89.909,-200.68 200.68,-200.68c110.772,0 200.681,-89.908 200.681,-200.68c0,-110.772 -89.909,-200.681 -200.681,-200.681l0,0Z"/><path id="path17" d="M355.595,262.045l0,-149.609c0,-6.533 2.376,-12.194 7.166,-16.945c4.751,-4.751 10.412,-7.166 16.984,-7.166l77.992,0c6.453,0 12.035,2.376 16.747,7.166c4.711,4.751 7.047,10.412 7.047,16.945l0,149.609c0,6.651 -2.376,12.312 -7.047,17.024c-4.712,4.711 -10.413,7.047 -17.064,7.047l-77.675,0c-6.73,0 -12.471,-2.336 -17.142,-7.047c-4.672,-4.711 -6.968,-10.373 -6.968,-17.024l-0.04,0l0,0Zm101.232,-0.911l0,-147.472l-76.21,0l0,147.472l76.21,0Z"/><path id="path19" d="M384.1,714.319l38.402,0l0,-147.472l-37.768,0c-3.484,0 -6.414,-1.227 -8.869,-3.642c-2.454,-2.415 -3.642,-5.384 -3.642,-8.868c0,-3.444 1.227,-6.414 3.642,-8.829c2.415,-2.415 5.385,-3.642 8.869,-3.642l62.789,0l0,172.493l25.021,0l0,-52.061c0,-3.365 1.227,-6.294 3.642,-8.788c2.415,-2.495 5.384,-3.722 8.828,-3.722c3.484,0 6.454,1.227 8.869,3.642c2.415,2.455 3.642,5.385 3.642,8.868l0,64.571c0,3.484 -1.227,6.453 -3.642,8.908c-2.415,2.415 -5.345,3.603 -8.869,3.603l-100.914,0c-3.484,0 -6.413,-1.267 -8.828,-3.761c-2.455,-2.534 -3.642,-5.543 -3.642,-9.027c0,-3.365 1.227,-6.255 3.642,-8.67c2.415,-2.375 5.384,-3.563 8.828,-3.563l0,-0.04l0,0Z" style="fill:#fff;"/></g><path d="M3085.57,88.229c15.33,0 30.297,3.934 44.901,11.8c14.604,7.867 25.98,19.123 34.129,33.767c8.149,14.644 12.224,29.913 12.224,45.808c0,15.733 -4.014,30.862 -12.042,45.385c-8.028,14.523 -19.284,25.798 -33.766,33.826c-14.483,8.029 -29.632,12.043 -45.446,12.043c-15.814,0 -30.962,-4.014 -45.445,-12.043c-14.483,-8.028 -25.758,-19.303 -33.827,-33.826c-8.068,-14.523 -12.102,-29.652 -12.102,-45.385c0,-15.895 4.094,-31.164 12.284,-45.808c8.189,-14.644 19.586,-25.9 34.19,-33.767c14.604,-7.866 29.57,-11.8 44.9,-11.8Zm0,15.129c-12.828,0 -25.314,3.288 -37.457,9.863c-12.143,6.576 -21.644,15.976 -28.502,28.199c-6.858,12.224 -10.287,24.952 -10.287,38.184c0,13.151 3.369,25.758 10.106,37.821c6.737,12.062 16.157,21.462 28.259,28.199c12.103,6.737 24.73,10.105 37.881,10.105c13.152,0 25.779,-3.368 37.881,-10.105c12.103,-6.737 21.503,-16.137 28.2,-28.199c6.696,-12.063 10.045,-24.67 10.045,-37.821c0,-13.232 -3.409,-25.96 -10.227,-38.184c-6.818,-12.223 -16.318,-21.623 -28.502,-28.199c-12.183,-6.575 -24.649,-9.863 -37.397,-9.863Zm-40.059,126.714l0,-98.273l33.766,0c11.538,0 19.889,0.907 25.052,2.723c5.164,1.815 9.279,4.982 12.345,9.5c3.066,4.519 4.599,9.319 4.599,14.402c0,7.181 -2.562,13.434 -7.685,18.759c-5.124,5.326 -11.921,8.311 -20.393,8.956c3.469,1.453 6.253,3.187 8.351,5.205c3.953,3.872 8.794,10.367 14.523,19.485l11.981,19.243l-19.364,0l-8.714,-15.492c-6.858,-12.183 -12.385,-19.807 -16.58,-22.873c-2.905,-2.26 -7.141,-3.389 -12.708,-3.389l-9.319,0l0,41.754l-15.854,0Zm15.854,-55.309l19.243,0c9.198,0 15.471,-1.372 18.82,-4.115c3.348,-2.743 5.022,-6.374 5.022,-10.892c0,-2.905 -0.806,-5.507 -2.42,-7.806c-1.614,-2.3 -3.853,-4.014 -6.717,-5.144c-2.864,-1.13 -8.169,-1.694 -15.915,-1.694l-18.033,0l0,29.651Z" style="fill-rule:nonzero;"/></g></svg>